<svg width="159" height="62" viewBox="0 0 159 62" fill="none" xmlns="http://www.w3.org/2000/svg">
<path d="M5.856 49.48C4.896 49.48 4.128 49.224 3.552 48.712C2.976 48.2 2.688 47.496 2.688 46.6V26.824C2.688 23.112 3.744 20.2 5.856 18.088C7.968 15.976 10.88 14.92 14.592 14.92C16.384 14.92 18.064 15.368 19.632 16.264C21.232 17.128 22.608 18.376 23.76 20.008C24.88 18.344 26.224 17.08 27.792 16.216C29.392 15.352 31.12 14.92 32.976 14.92C36.688 14.92 39.6 15.976 41.712 18.088C43.824 20.2 44.88 23.112 44.88 26.824V46.6C44.88 47.464 44.576 48.168 43.968 48.712C43.392 49.224 42.624 49.48 41.664 49.48C40.704 49.48 39.936 49.224 39.36 48.712C38.784 48.2 38.496 47.496 38.496 46.6V26.824C38.496 24.392 38.048 22.648 37.152 21.592C36.256 20.504 34.784 19.96 32.736 19.96C30.88 19.96 29.44 20.552 28.416 21.736C27.424 22.92 26.928 24.616 26.928 26.824V46.6C26.928 47.496 26.64 48.2 26.064 48.712C25.488 49.224 24.72 49.48 23.76 49.48C22.8 49.48 22.032 49.224 21.456 48.712C20.912 48.2 20.64 47.496 20.64 46.6V26.824C20.64 24.68 20.128 23 19.104 21.784C18.08 20.568 16.656 19.96 14.832 19.96C12.784 19.96 11.312 20.504 10.416 21.592C9.52 22.648 9.072 24.392 9.072 26.824V46.6C9.072 47.464 8.768 48.168 8.16 48.712C7.584 49.224 6.816 49.48 5.856 49.48ZM105.933 49.48C102.317 49.48 99.1814 48.792 96.5254 47.416C93.8694 46.04 91.8374 44.056 90.4294 41.464C89.0214 38.872 88.3174 35.8 88.3174 32.248C88.3174 28.696 89.0214 25.624 90.4294 23.032C91.8374 20.408 93.8534 18.408 96.4774 17.032C99.1334 15.624 102.253 14.92 105.837 14.92C108.813 14.92 111.565 15.432 114.093 16.456C116.621 17.48 118.493 18.84 119.709 20.536C120.093 21.048 120.285 21.576 120.285 22.12C120.285 22.92 119.853 23.64 118.989 24.28C118.605 24.568 118.125 24.712 117.549 24.712C117.069 24.712 116.589 24.616 116.109 24.424C115.629 24.2 115.229 23.896 114.909 23.512C113.821 22.264 112.557 21.368 111.117 20.824C109.677 20.248 107.917 19.96 105.837 19.96C102.349 19.96 99.6294 21.048 97.6774 23.224C95.7254 25.368 94.7494 28.376 94.7494 32.248C94.7494 36.088 95.7254 39.08 97.6774 41.224C99.6614 43.368 102.413 44.44 105.933 44.44C109.965 44.44 113.181 43.256 115.581 40.888C116.573 39.96 117.485 39.496 118.317 39.496C118.893 39.496 119.421 39.688 119.901 40.072C120.637 40.712 121.005 41.416 121.005 42.184C121.005 42.76 120.797 43.32 120.381 43.864C119.005 45.624 117.037 47 114.477 47.992C111.949 48.984 109.101 49.48 105.933 49.48ZM128.85 49.432C127.89 49.432 127.122 49.176 126.546 48.664C125.97 48.152 125.682 47.448 125.682 46.552V29.752C125.682 25.112 127.01 21.48 129.666 18.856C132.322 16.232 136.018 14.92 140.754 14.92C143.858 14.92 146.546 15.512 148.818 16.696C151.09 17.88 152.818 19.592 154.002 21.832C155.218 24.072 155.826 26.712 155.826 29.752V46.552C155.826 47.448 155.538 48.152 154.962 48.664C154.386 49.176 153.618 49.432 152.658 49.432C151.698 49.432 150.914 49.176 150.306 48.664C149.73 48.12 149.442 47.416 149.442 46.552V38.728H132.066V46.552C132.066 47.416 131.762 48.12 131.154 48.664C130.578 49.176 129.81 49.432 128.85 49.432ZM149.442 33.784V29.608C149.442 26.408 148.706 24.008 147.234 22.408C145.794 20.776 143.634 19.96 140.754 19.96C134.962 19.96 132.066 23.176 132.066 29.608V33.784H149.442Z" fill="white"/>
<path fill-rule="evenodd" clip-rule="evenodd" d="M74.0764 24.2612C70.7396 21.5854 67.5493 19.7528 64.8823 18.9801C63.0444 18.4475 61.5609 18.4191 60.4448 18.8953C60.0091 19.0811 59.8144 19.2292 59.429 19.6683C59.1668 19.967 58.9278 20.3179 58.898 20.4482C58.8497 20.6593 58.8036 20.6813 58.4734 20.6509C57.8688 20.5952 57.2917 20.8332 56.8632 21.3149C56.5753 21.6385 56.3476 21.7907 55.8446 21.9957C55.3008 22.2172 55.1303 22.337 54.7814 22.7423C54.3154 23.2839 54.0457 23.8787 54.0012 24.4629C53.9763 24.7895 53.9307 24.8769 53.7307 24.9812C53.1196 25.3001 52.5915 26.198 52.6102 26.8863C52.6178 27.1649 52.5427 27.3107 52.1318 27.8149C51.7509 28.2825 51.6107 28.538 51.4896 28.9847C50.9342 31.035 52.1255 34.1787 54.7697 37.6405C56.2724 39.6077 57.1107 40.4822 59.7131 42.7974C61.9089 44.751 62.4018 45.1529 63.583 45.9521C67.1693 48.3788 69.9895 49.5905 72.3768 49.73C73.742 49.8097 74.8216 49.4676 75.5508 48.7242C75.923 48.3447 76.0049 48.3073 76.6109 48.239C77.4309 48.1467 78.008 47.7776 78.346 47.1293C78.5481 46.7417 78.5899 46.7074 78.9742 46.6133C79.6622 46.4448 80.1008 46.1843 80.5664 45.6674C80.9267 45.2674 81.0372 45.066 81.1868 44.5361C81.3177 44.0723 81.4801 43.7504 81.7654 43.389C82.2266 42.805 82.3382 42.3008 82.1486 41.6581C82.0471 41.3144 82.0605 41.2351 82.2392 41.1192C82.3545 41.0443 82.6494 40.7554 82.8946 40.477C85.1921 37.8683 82.3304 31.8847 75.9386 25.9322C75.1831 25.2286 74.3451 24.4767 74.0764 24.2612ZM56.7189 25.4614C57.2162 26.6417 57.8314 27.6793 58.8559 29.0651C60.4854 31.2697 61.9809 32.8822 64.9256 35.6099C70.5943 40.8608 75.9245 44.1427 79.1409 44.3626C79.5186 44.3885 79.8298 44.4458 79.8324 44.4902C79.8412 44.6426 79.4056 45.0556 79.0612 45.2213C78.4954 45.4936 77.9501 45.5523 77.1395 45.428C73.9964 44.9459 68.9518 41.7165 63.6425 36.7873C61.4976 34.7961 60.5708 33.8451 59.1649 32.1926C56.2426 28.7581 54.8774 25.9556 55.3539 24.3689C55.4987 23.8867 55.8628 23.3432 56.0484 23.3322C56.0936 23.3295 56.1791 23.6081 56.2382 23.9514C56.2973 24.2945 56.5136 24.974 56.7189 25.4614Z" fill="#B494C5"/>
</svg>
